<?xml version="1.0" encoding="UTF-8"?>
<svg xmlns="http://www.w3.org/2000/svg"
     xmlns:xlink="http://www.w3.org/1999/xlink"
     xmlns:gadfly="http://www.gadflyjl.org/ns"
     version="1.2"
     width="203.2mm" height="76.2mm" viewBox="0 0 203.2 76.2"
     stroke="none"
     fill="#000000"
     stroke-width="0.3"
     font-size="3.88"
>
<g class="plotroot xscalable yscalable" id="fig-3423383021ce4568ad0337e0c89a312c-element-1">
  <g font-size="3.88" font-family="'PT Sans','Helvetica Neue','Helvetica',sans-serif" fill="#564A55" stroke="#000000" stroke-opacity="0.000" id="fig-3423383021ce4568ad0337e0c89a312c-element-2">
    <text x="101.74" y="64.59" text-anchor="middle" dy="0.6em">Date</text>
  </g>
  <g class="guide xlabels" font-size="2.82" font-family="'PT Sans Caption','Helvetica Neue','Helvetica',sans-serif" fill="#6C606B" id="fig-3423383021ce4568ad0337e0c89a312c-element-3">
    <text x="22.24" y="57.91" text-anchor="middle" dy="0.6em">Apr</text>
    <text x="31.4" y="57.91" text-anchor="middle" dy="0.6em">May</text>
    <text x="40.86" y="57.91" text-anchor="middle" dy="0.6em">Jun</text>
    <text x="50.01" y="57.91" text-anchor="middle" dy="0.6em">Jul</text>
    <text x="59.47" y="57.91" text-anchor="middle" dy="0.6em">Aug</text>
    <text x="68.94" y="57.91" text-anchor="middle" dy="0.6em">Sep</text>
    <text x="78.09" y="57.91" text-anchor="middle" dy="0.6em">Oct</text>
    <text x="87.55" y="57.91" text-anchor="middle" dy="0.6em">Nov</text>
    <text x="96.71" y="57.91" text-anchor="middle" dy="0.6em">Dec</text>
    <text x="106.17" y="57.91" text-anchor="middle" dy="0.6em">Jan 2015</text>
    <text x="115.63" y="57.91" text-anchor="middle" dy="0.6em">Feb</text>
    <text x="124.17" y="57.91" text-anchor="middle" dy="0.6em">Mar</text>
    <text x="133.63" y="57.91" text-anchor="middle" dy="0.6em">Apr</text>
    <text x="142.79" y="57.91" text-anchor="middle" dy="0.6em">May</text>
    <text x="152.25" y="57.91" text-anchor="middle" dy="0.6em">Jun</text>
    <text x="161.41" y="57.91" text-anchor="middle" dy="0.6em">Jul</text>
    <text x="170.87" y="57.91" text-anchor="middle" dy="0.6em">Aug</text>
    <text x="180.33" y="57.91" text-anchor="middle" dy="0.6em">Sep</text>
  </g>
  <g class="guide colorkey" id="fig-3423383021ce4568ad0337e0c89a312c-element-4">
    <g fill="#4C404B" font-size="2.82" font-family="'PT Sans','Helvetica Neue','Helvetica',sans-serif" id="fig-3423383021ce4568ad0337e0c89a312c-element-5">
      <text x="187.67" y="29.14" dy="0.35em" id="fig-3423383021ce4568ad0337e0c89a312c-element-6" class="color_0.2">0.2</text>
      <text x="187.67" y="32.77" dy="0.35em" id="fig-3423383021ce4568ad0337e0c89a312c-element-7" class="color_0.3">0.3</text>
      <text x="187.67" y="36.4" dy="0.35em" id="fig-3423383021ce4568ad0337e0c89a312c-element-8" class="color_0.4">0.4</text>
    </g>
    <g stroke="#000000" stroke-opacity="0.000" id="fig-3423383021ce4568ad0337e0c89a312c-element-9">
      <rect x="184.85" y="28.24" width="1.81" height="1.81" id="fig-3423383021ce4568ad0337e0c89a312c-element-10" fill="#00BFFF" class="color_0.2"/>
      <rect x="184.85" y="31.86" width="1.81" height="1.81" id="fig-3423383021ce4568ad0337e0c89a312c-element-11" fill="#D4CA3A" class="color_0.3"/>
      <rect x="184.85" y="35.49" width="1.81" height="1.81" id="fig-3423383021ce4568ad0337e0c89a312c-element-12" fill="#FF5EA0" class="color_0.4"/>
    </g>
    <g fill="#362A35" font-size="3.88" font-family="'PT Sans','Helvetica Neue','Helvetica',sans-serif" stroke="#000000" stroke-opacity="0.000" id="fig-3423383021ce4568ad0337e0c89a312c-element-13">
      <text x="184.85" y="25.32" id="fig-3423383021ce4568ad0337e0c89a312c-element-14">Julia ver.</text>
    </g>
  </g>
  <g clip-path="url(#fig-3423383021ce4568ad0337e0c89a312c-element-16)" id="fig-3423383021ce4568ad0337e0c89a312c-element-15">
    <g pointer-events="visible" opacity="1" fill="#000000" fill-opacity="0.000" stroke="#000000" stroke-opacity="0.000" class="guide background" id="fig-3423383021ce4568ad0337e0c89a312c-element-17">
      <rect x="19.63" y="5" width="164.22" height="51.91" id="fig-3423383021ce4568ad0337e0c89a312c-element-18"/>
    </g>
    <g class="guide ygridlines xfixed" stroke-dasharray="0.5,0.5" stroke-width="0.2" stroke="#D0D0E0" id="fig-3423383021ce4568ad0337e0c89a312c-element-19">
      <path fill="none" d="M19.63,54.91 L 183.85 54.91" id="fig-3423383021ce4568ad0337e0c89a312c-element-20"/>
      <path fill="none" d="M19.63,45.33 L 183.85 45.33" id="fig-3423383021ce4568ad0337e0c89a312c-element-21"/>
      <path fill="none" d="M19.63,35.75 L 183.85 35.75" id="fig-3423383021ce4568ad0337e0c89a312c-element-22"/>
      <path fill="none" d="M19.63,26.17 L 183.85 26.17" id="fig-3423383021ce4568ad0337e0c89a312c-element-23"/>
      <path fill="none" d="M19.63,16.58 L 183.85 16.58" id="fig-3423383021ce4568ad0337e0c89a312c-element-24"/>
      <path fill="none" d="M19.63,7 L 183.85 7" id="fig-3423383021ce4568ad0337e0c89a312c-element-25"/>
    </g>
    <g class="guide xgridlines yfixed" stroke-dasharray="0.5,0.5" stroke-width="0.2" stroke="#D0D0E0" id="fig-3423383021ce4568ad0337e0c89a312c-element-26">
      <path fill="none" d="M22.24,5 L 22.24 56.91" id="fig-3423383021ce4568ad0337e0c89a312c-element-27"/>
      <path fill="none" d="M31.4,5 L 31.4 56.91" id="fig-3423383021ce4568ad0337e0c89a312c-element-28"/>
      <path fill="none" d="M40.86,5 L 40.86 56.91" id="fig-3423383021ce4568ad0337e0c89a312c-element-29"/>
      <path fill="none" d="M50.01,5 L 50.01 56.91" id="fig-3423383021ce4568ad0337e0c89a312c-element-30"/>
      <path fill="none" d="M59.47,5 L 59.47 56.91" id="fig-3423383021ce4568ad0337e0c89a312c-element-31"/>
      <path fill="none" d="M68.94,5 L 68.94 56.91" id="fig-3423383021ce4568ad0337e0c89a312c-element-32"/>
      <path fill="none" d="M78.09,5 L 78.09 56.91" id="fig-3423383021ce4568ad0337e0c89a312c-element-33"/>
      <path fill="none" d="M87.55,5 L 87.55 56.91" id="fig-3423383021ce4568ad0337e0c89a312c-element-34"/>
      <path fill="none" d="M96.71,5 L 96.71 56.91" id="fig-3423383021ce4568ad0337e0c89a312c-element-35"/>
      <path fill="none" d="M106.17,5 L 106.17 56.91" id="fig-3423383021ce4568ad0337e0c89a312c-element-36"/>
      <path fill="none" d="M115.63,5 L 115.63 56.91" id="fig-3423383021ce4568ad0337e0c89a312c-element-37"/>
      <path fill="none" d="M124.17,5 L 124.17 56.91" id="fig-3423383021ce4568ad0337e0c89a312c-element-38"/>
      <path fill="none" d="M133.63,5 L 133.63 56.91" id="fig-3423383021ce4568ad0337e0c89a312c-element-39"/>
      <path fill="none" d="M142.79,5 L 142.79 56.91" id="fig-3423383021ce4568ad0337e0c89a312c-element-40"/>
      <path fill="none" d="M152.25,5 L 152.25 56.91" id="fig-3423383021ce4568ad0337e0c89a312c-element-41"/>
      <path fill="none" d="M161.41,5 L 161.41 56.91" id="fig-3423383021ce4568ad0337e0c89a312c-element-42"/>
      <path fill="none" d="M170.87,5 L 170.87 56.91" id="fig-3423383021ce4568ad0337e0c89a312c-element-43"/>
      <path fill="none" d="M180.33,5 L 180.33 56.91" id="fig-3423383021ce4568ad0337e0c89a312c-element-44"/>
    </g>
    <g class="plotpanel" id="fig-3423383021ce4568ad0337e0c89a312c-element-45">
      <g class="geometry" stroke="#000000" stroke-opacity="0.000" fill="#4C404B" font-size="2.82" font-family="'PT Sans Caption','Helvetica Neue','Helvetica',sans-serif" id="fig-3423383021ce4568ad0337e0c89a312c-element-46">
        <text x="70.21" y="52.46" text-anchor="middle" dy="0.35em" id="fig-3423383021ce4568ad0337e0c89a312c-element-47" visibility="visible">v0.3.0</text>
        <text x="79.98" y="52.46" text-anchor="middle" dy="0.35em" id="fig-3423383021ce4568ad0337e0c89a312c-element-48" visibility="visible">v0.3.1</text>
        <text x="89.13" y="52.46" text-anchor="middle" dy="0.35em" id="fig-3423383021ce4568ad0337e0c89a312c-element-49" visibility="visible">v0.3.2</text>
        <text x="99.21" y="52.46" text-anchor="middle" dy="0.35em" id="fig-3423383021ce4568ad0337e0c89a312c-element-50" visibility="visible">v0.3.3</text>
        <text x="105.34" y="52.46" text-anchor="middle" dy="0.35em" id="fig-3423383021ce4568ad0337e0c89a312c-element-51" visibility="visible"></text>
        <text x="113.24" y="52.46" text-anchor="middle" dy="0.35em" id="fig-3423383021ce4568ad0337e0c89a312c-element-52" visibility="visible">v0.3.5</text>
        <text x="125.45" y="52.46" text-anchor="middle" dy="0.35em" id="fig-3423383021ce4568ad0337e0c89a312c-element-53" visibility="visible">v0.3.6</text>
        <text x="135.83" y="52.46" text-anchor="middle" dy="0.35em" id="fig-3423383021ce4568ad0337e0c89a312c-element-54" visibility="visible">v0.3.7</text>
        <text x="147.43" y="52.46" text-anchor="middle" dy="0.35em" id="fig-3423383021ce4568ad0337e0c89a312c-element-55" visibility="visible">v0.3.8</text>
        <text x="156.58" y="52.46" text-anchor="middle" dy="0.35em" id="fig-3423383021ce4568ad0337e0c89a312c-element-56" visibility="visible">v0.3.9</text>
        <text x="156.58" y="52.46" text-anchor="middle" dy="0.35em" id="fig-3423383021ce4568ad0337e0c89a312c-element-57" visibility="visible">v0.3.9</text>
        <text x="165.05" y="52.46" text-anchor="middle" dy="0.35em" id="fig-3423383021ce4568ad0337e0c89a312c-element-58" visibility="visible">v0.3.10</text>
        <text x="175.12" y="52.46" text-anchor="middle" dy="0.35em" id="fig-3423383021ce4568ad0337e0c89a312c-element-59" visibility="visible">v0.3.11</text>
      </g>
      <g class="yfixed" stroke-width="0.26" stroke="#333333" id="fig-3423383021ce4568ad0337e0c89a312c-element-60">
        <path fill="none" d="M65.27,5 L 65.27 56.91" id="fig-3423383021ce4568ad0337e0c89a312c-element-61"/>
        <path fill="none" d="M75.04,5 L 75.04 56.91" id="fig-3423383021ce4568ad0337e0c89a312c-element-62"/>
        <path fill="none" d="M84.19,5 L 84.19 56.91" id="fig-3423383021ce4568ad0337e0c89a312c-element-63"/>
        <path fill="none" d="M94.27,5 L 94.27 56.91" id="fig-3423383021ce4568ad0337e0c89a312c-element-64"/>
        <path fill="none" d="M104.34,5 L 104.34 56.91" id="fig-3423383021ce4568ad0337e0c89a312c-element-65"/>
        <path fill="none" d="M108.3,5 L 108.3 56.91" id="fig-3423383021ce4568ad0337e0c89a312c-element-66"/>
        <path fill="none" d="M120.51,5 L 120.51 56.91" id="fig-3423383021ce4568ad0337e0c89a312c-element-67"/>
        <path fill="none" d="M130.89,5 L 130.89 56.91" id="fig-3423383021ce4568ad0337e0c89a312c-element-68"/>
        <path fill="none" d="M142.49,5 L 142.49 56.91" id="fig-3423383021ce4568ad0337e0c89a312c-element-69"/>
        <path fill="none" d="M151.64,5 L 151.64 56.91" id="fig-3423383021ce4568ad0337e0c89a312c-element-70"/>
        <path fill="none" d="M151.64,5 L 151.64 56.91" id="fig-3423383021ce4568ad0337e0c89a312c-element-71"/>
        <path fill="none" d="M159.27,5 L 159.27 56.91" id="fig-3423383021ce4568ad0337e0c89a312c-element-72"/>
        <path fill="none" d="M169.34,5 L 169.34 56.91" id="fig-3423383021ce4568ad0337e0c89a312c-element-73"/>
      </g>
      <g stroke-width="0.79" fill="#000000" fill-opacity="0.000" class="geometry color_0.4" stroke="#FF5EA0" id="fig-3423383021ce4568ad0337e0c89a312c-element-74">
        <path fill="none" d="M63.14,39.2 L 63.44 38.91 63.75 38.82 64.05 38.72 64.36 38.72 64.66 38.72 65.27 38.43 65.58 38.43 65.88 38.34 66.19 38.34 66.49 38.34 66.8 38.05 67.1 37.86 67.41 37.86 68.02 37.67 68.33 37.38 68.94 37.19 69.24 37.19 69.55 37.19 70.77 37.19 71.68 36.61 71.99 36.52 72.29 36.42 72.6 36.23 72.9 36.23 73.21 36.23 73.51 35.46 73.82 35.46 74.12 35.46 74.73 35.37 75.04 35.37 75.34 35.27 75.65 35.27 75.95 35.27 76.26 35.17 76.57 35.17 77.18 35.27 77.48 35.17 77.79 35.17 78.09 34.98 78.4 34.79 78.7 34.79 79.01 34.79 79.31 34.6 80.23 34.41 80.53 34.41 80.84 34.22 81.14 34.12 81.45 34.12 81.75 34.12 82.06 33.93 82.36 33.93 82.67 33.83 82.97 33.74 83.28 33.74 83.58 33.74 83.89 33.74 84.19 33.54 84.5 33.35 84.81 33.35 85.11 33.35 85.42 33.26 85.72 33.26 86.03 33.16 86.33 33.16 86.64 32.97 86.94 32.87 87.25 32.87 87.55 32.78 87.86 32.78 88.16 32.78 88.47 32.78 88.77 32.68 89.08 32.59 89.99 32.59 91.52 32.01 91.82 31.82 92.13 31.82 92.43 31.72 92.74 31.72 93.05 31.44 93.35 31.44 94.57 30.96 94.88 30.96 96.4 30.86 97.01 30.86 97.32 30.67 97.62 30.57 97.93 30.57 98.23 30.57 98.54 30.38 98.84 30.19 99.76 30.1 100.06 30 100.67 29.62 100.98 29.62 101.29 29.62 102.2 29.62 102.81 29.42 103.73 29.23 104.95 29.04 105.56 28.66 106.47 28.47 108.61 27.8 109.83 27.12 110.14 26.93 110.44 26.93 110.75 26.36 111.05 26.36 111.36 26.36 111.97 26.26 112.27 26.17 112.58 26.17 112.88 25.88 113.19 25.78 113.49 25.78 113.8 25.78 114.41 25.5 114.71 25.21 115.02 25.11 116.24 24.35 116.54 24.35 116.85 24.63 117.46 24.35 118.07 24.06 118.38 24.06 119.29 23.87 120.82 23.87 122.34 23.77 123.87 22.91 124.17 22.91 124.48 22.91 124.78 22.72 125.09 22.72 125.7 22.52 126.31 22.52 127.53 22.43 127.84 22.24 128.14 22.24 128.45 22.24 128.75 22.05 129.06 22.14 129.36 21.95 133.02 21.57 133.63 21.57 133.94 21.28 134.55 21.28 135.77 21.18 136.38 21.09 136.99 20.8 138.21 20.61 138.82 20.42 139.13 20.13 139.74 19.65 140.04 19.65 140.35 19.55 140.65 19.36 140.96 19.36 141.26 19.27 141.87 19.17 142.18 18.98 142.79 18.98 143.4 18.79 143.71 18.5 144.01 18.4 144.62 18.21 144.93 18.12 146.45 17.73 147.67 17.54 147.98 17.35 150.42 17.06 150.73 17.06 151.03 17.06 151.95 16.68 152.25 16.58 152.56 16.39 153.17 16.2 153.78 16.2 154.39 16.01 157.13 15.34 158.05 15.34 158.35 15.34 158.66 15.15 158.97 15.15 159.27 14.86 159.58 14.86 159.88 14.86 160.19 14.76 161.1 14.67 161.71 14.47 162.32 14.47 162.63 14.28 162.93 13.9 163.24 13.71 163.54 13.61 163.85 13.61 169.04 12.17 171.48 11.6 174.22 11.12 179.41 8.72 180.33 8.53 181.85 8.15" id="fig-3423383021ce4568ad0337e0c89a312c-element-75"/>
      </g>
      <g stroke-width="0.79" fill="#000000" fill-opacity="0.000" class="geometry color_0.3" stroke="#D4CA3A" id="fig-3423383021ce4568ad0337e0c89a312c-element-76">
        <path fill="none" d="M21.63,45.72 L 21.94 45.72 22.24 45.62 22.55 45.62 22.85 45.62 23.16 45.62 23.46 45.62 23.77 45.52 24.38 45.52 24.68 45.43 25.29 45.33 25.9 45.14 26.21 45.14 26.82 45.14 27.13 45.04 29.26 44.66 30.18 44.66 30.79 44.66 32.92 44.57 33.23 44.37 33.53 44.28 33.84 44.28 34.14 44.28 34.45 44.28 34.75 44.28 35.06 44.28 35.37 44.28 35.67 44.28 35.98 44.28 36.28 43.99 36.89 43.89 37.2 43.89 37.5 43.89 37.81 43.7 38.11 43.7 38.42 43.7 38.72 43.61 39.03 43.61 39.33 43.61 39.64 43.61 39.94 43.61 40.25 43.51 40.55 43.51 40.86 47.34 41.16 43.42 41.47 43.32 41.77 43.22 43.61 42.65 43.91 42.55 44.22 42.46 44.52 42.36 44.83 42.17 45.13 42.17 45.44 41.98 45.74 41.98 46.05 41.88 46.35 41.79 46.96 41.79 47.27 41.59 47.57 41.59 47.88 41.59 48.18 41.59 48.49 41.59 48.79 41.31 49.1 41.31 49.71 41.21 50.01 41.02 50.32 40.92 50.62 40.83 50.93 40.83 51.23 40.64 51.85 40.54 52.15 40.25 52.46 40.25 52.76 40.25 53.37 39.77 53.98 39.49 54.29 39.49 54.59 39.39 54.9 39.39 55.81 39.29 56.12 39.29 56.42 39.2 56.73 39.2 57.03 39.2 57.34 39.1 57.64 39.01 57.95 38.91 58.56 38.91 58.86 38.91 59.47 38.91 59.78 38.82 60.09 38.53 60.39 38.53 61 38.43 61.31 38.43 61.61 38.24 61.92 38.14 62.22 38.05 62.53 37.95 62.83 37.86 63.14 37.67 63.44 37.67 63.75 37.57 64.05 37.47 64.36 37.47 64.66 37.47 65.27 37.19 65.58 37.19 65.88 37.09 66.19 37.09 66.49 37.09 66.8 36.8 67.1 36.71 67.41 36.61 68.02 37.76 68.33 37.47 68.94 37.28 69.24 37.28 69.55 37.28 70.77 37.28 71.68 36.71 71.99 36.61 72.29 36.52 72.6 36.32 72.9 36.32 73.21 36.32 73.51 35.56 73.82 35.56 74.12 35.56 74.73 35.56 75.04 35.46 75.34 35.37 75.65 35.37 75.95 35.37 76.26 35.27 76.57 35.27 77.18 35.37 77.48 35.27 77.79 35.27 78.09 35.08 78.4 33.16 78.7 34.89 79.01 34.89 79.31 34.69 80.23 34.5 80.53 34.5 80.84 34.31 81.14 34.22 81.45 34.22 81.75 34.22 82.06 34.02 82.36 34.02 82.67 33.93 82.97 33.83 83.28 33.83 83.58 33.83 83.89 33.83 84.19 33.74 84.5 33.54 84.81 33.54 85.11 33.54 85.42 33.45 85.72 33.45 86.03 33.35 86.33 33.35 86.64 33.16 86.94 33.07 87.25 33.07 87.55 32.97 87.86 32.97 88.16 32.97 88.47 32.87 88.77 32.87 89.08 32.78 89.99 32.78 91.52 32.3 91.82 32.11 92.13 32.11 92.43 32.01 92.74 32.01 93.05 31.72 93.35 31.72 94.57 31.24 94.88 31.24 96.4 31.15 97.01 31.15 97.32 31.05 97.62 30.96 97.93 30.96 98.23 30.96 98.54 30.77 98.84 30.67 99.76 30.48 100.06 30.38 100.67 30.1 100.98 30 101.29 30 102.2 30 102.81 29.81 103.73 29.62 104.95 29.42 105.56 29.14 106.47 28.75 108.61 28.18 109.83 27.51 110.14 27.32 110.44 27.32 110.75 26.84 111.05 26.84 111.36 26.84 111.97 26.84 112.27 26.65 112.58 26.65 112.88 26.36 113.19 26.26 113.49 26.26 113.8 26.26 114.41 25.97 114.71 25.78 115.02 25.69 116.24 24.92 116.54 25.11 116.85 25.11 117.46 24.82 118.07 24.54 118.38 24.54 119.29 24.35 120.82 24.35 122.34 23.77 123.87 23.39 124.17 23.39 124.48 23.39 124.78 23.2 125.09 23.2 125.7 23.2 126.31 23.2 127.53 23 127.84 22.81 128.14 22.72 128.45 22.72 128.75 22.52 129.06 22.62 129.36 22.43 133.02 22.33 133.63 22.33 133.94 22.05 134.55 22.05 135.77 21.95 136.38 21.95 136.99 21.66 138.21 21.66 138.82 21.47 139.13 21.37 139.74 20.9 140.04 20.9 140.35 20.8 140.65 20.51 140.96 20.51 141.26 20.42 141.87 20.32 142.18 20.22 142.79 20.22 143.4 20.03 143.71 19.75 144.01 19.65 144.62 19.46 144.93 19.36 146.45 18.98 147.67 18.79 147.98 18.6 150.42 18.21 150.73 18.21 151.03 18.21 151.95 17.92 152.25 17.83 152.56 17.73 153.17 17.54 153.78 17.54 154.39 17.45 157.13 16.97 158.05 17.06 158.35 17.06 158.66 16.87 158.97 16.87 159.27 16.68 159.58 16.68 159.88 16.68 160.19 16.58 161.1 16.58 161.71 16.39 162.32 16.49 162.63 16.3 162.93 15.91 163.24 15.72 163.54 15.62 163.85 15.62 169.04 14.28 171.48 13.8 174.22 13.32 179.41 11.98 180.33 11.79 181.85 11.7" id="fig-3423383021ce4568ad0337e0c89a312c-element-77"/>
      </g>
      <g stroke-width="0.79" fill="#000000" fill-opacity="0.000" class="geometry color_0.2" stroke="#00BFFF" id="fig-3423383021ce4568ad0337e0c89a312c-element-78">
        <path fill="none" d="M21.63,46.77 L 21.94 46.77 22.24 46.67 22.55 46.67 22.85 46.67 23.16 46.67 23.46 46.67 23.77 46.67 24.38 46.67 24.68 46.67 25.29 46.58 25.9 46.48 26.21 46.48 26.82 46.39 27.13 46.29 29.26 46.1 30.18 46.1 30.79 46.1 32.92 46 33.23 45.91 33.53 45.91 33.84 45.91 34.14 45.91 34.45 45.91 34.75 45.91 35.06 45.91 35.37 45.91 35.67 45.91 35.98 45.62 36.28 45.62 36.89 45.52 37.2 45.52 37.5 45.52 37.81 45.43 38.11 46.19 38.42 45.72 38.72 45.72 39.03 45.72 39.33 45.72 39.64 45.72 39.94 45.72 40.25 45.72 40.55 45.72 40.86 45.62 41.16 45.62 41.47 45.52 41.77 45.52 43.61 45.04 43.91 45.04 44.22 44.95 44.52 44.85 44.83 44.66 45.13 44.66 45.44 44.66 45.74 44.66 46.05 44.66 46.35 44.57 46.96 44.57 47.27 44.37 47.57 44.37 47.88 44.37 48.18 44.37 48.49 44.37 48.79 44.09 49.1 44.09 49.71 43.99 50.01 43.8 50.32 43.7 50.62 43.61 50.93 43.61 51.23 43.61 51.85 43.42 52.15 43.32 52.46 43.22 52.76 43.22 53.37 43.03 53.98 42.84 54.29 42.84 54.59 42.84 54.9 42.84 55.81 42.84 56.12 42.84 56.42 42.74 56.73 42.74 57.03 42.74 57.34 42.65 57.64 42.65 57.95 42.65 58.56 42.55 58.86 42.55 59.47 42.55 59.78 42.55 60.09 42.27 60.39 42.27 61 42.46 61.31 42.46 61.61 42.27 61.92 42.17 62.22 42.17 62.53 41.98 62.83 41.98" id="fig-3423383021ce4568ad0337e0c89a312c-element-79"/>
      </g>
    </g>
  </g>
  <g class="guide ylabels" font-size="2.82" font-family="'PT Sans Caption','Helvetica Neue','Helvetica',sans-serif" fill="#6C606B" id="fig-3423383021ce4568ad0337e0c89a312c-element-80">
    <text x="18.63" y="54.91" text-anchor="end" dy="0.35em" id="fig-3423383021ce4568ad0337e0c89a312c-element-81">200</text>
    <text x="18.63" y="45.33" text-anchor="end" dy="0.35em" id="fig-3423383021ce4568ad0337e0c89a312c-element-82">300</text>
    <text x="18.63" y="35.75" text-anchor="end" dy="0.35em" id="fig-3423383021ce4568ad0337e0c89a312c-element-83">400</text>
    <text x="18.63" y="26.17" text-anchor="end" dy="0.35em" id="fig-3423383021ce4568ad0337e0c89a312c-element-84">500</text>
    <text x="18.63" y="16.58" text-anchor="end" dy="0.35em" id="fig-3423383021ce4568ad0337e0c89a312c-element-85">600</text>
    <text x="18.63" y="7" text-anchor="end" dy="0.35em" id="fig-3423383021ce4568ad0337e0c89a312c-element-86">700</text>
  </g>
  <g font-size="3.88" font-family="'PT Sans','Helvetica Neue','Helvetica',sans-serif" fill="#564A55" stroke="#000000" stroke-opacity="0.000" id="fig-3423383021ce4568ad0337e0c89a312c-element-87">
    <text x="8.81" y="28.96" text-anchor="middle" dy="0.35em" transform="rotate(-90, 8.81, 30.96)" id="fig-3423383021ce4568ad0337e0c89a312c-element-88">Number of Tagged Packages</text>
  </g>
</g>
<defs>
<clipPath id="fig-3423383021ce4568ad0337e0c89a312c-element-16">
  <path d="M19.63,5 L 183.85 5 183.85 56.91 19.63 56.91" />
</clipPath
></defs>
</svg>
